<svg width="28" height="34" viewBox="0 0 28 34" fill="none" xmlns="http://www.w3.org/2000/svg">
  <path fill-rule="evenodd" clip-rule="evenodd" d="M22.9997 16.9998V17.0002L27.5 25.5001H18.4997L14 34L9.5 25.5001H4.99999H0.5L2.75 21.25L6.52959 14.1109L6.89712 13.4165L6.93181 13.3506L9.5 8.49992V8.50023L11.4901 4.74093L14 0L18.4997 8.49992V8.50023L22.9997 16.9998ZM11.3415 16.9999L14 11.9784L16.6582 16.9999L14 22.0217L11.3415 16.9999Z" fill="#E72F3C"/>
  <path d="M14.0003 22.0218L16.6588 17H11.3418L14.0003 22.0218Z" fill="#C61A27"/>
  <path d="M4.99999 17L0.5 25.5002H9.5L4.99999 17Z" fill="#C61A27"/>
  <path d="M14 33.9999L18.5 25.5H9.5L14 33.9999Z" fill="#C61A27"/>
  <path d="M22.9997 17L18.5 25.5002H27.4997L22.9997 17Z" fill="#C61A27"/>
</svg>
